<svg width="147" height="49" viewBox="0 0 147 49" fill="none" xmlns="http://www.w3.org/2000/svg">
<path d="M13.6818 48L0.136364 1.45454H12.5682L19.5909 31.9545H19.9773L28 1.45454H38.1364L46.1591 32.0227H46.5455L53.5909 1.45454H66L52.4773 48H41.6364L33.25 19.7727H32.8864L24.5 48H13.6818Z" fill="#229BE9"/>
<path d="M79.4741 48.7045C76.2014 48.7045 73.3756 48.1212 70.9968 46.9545C68.6332 45.7879 66.815 44.2197 65.5423 42.25C64.2695 40.2652 63.6332 38.0606 63.6332 35.6364C63.6332 33.8485 63.9817 32.2727 64.6786 30.9091C65.3908 29.5303 66.368 28.2652 67.6105 27.1136C68.868 25.947 70.3302 24.803 71.9968 23.6818L81.7695 17.4318C82.8756 16.7348 83.6559 16 84.1105 15.2273C84.5802 14.4545 84.815 13.6818 84.815 12.9091C84.815 12.0758 84.4892 11.3182 83.8377 10.6364C83.2014 9.95455 82.2544 9.62121 80.9968 9.63636C80.1938 9.63636 79.4968 9.80303 78.9059 10.1364C78.315 10.4697 77.8529 10.9167 77.5195 11.4773C77.2014 12.0379 77.0423 12.6742 77.0423 13.3864C77.0423 14.3106 77.3074 15.2576 77.8377 16.2273C78.368 17.197 79.0802 18.2273 79.9741 19.3182C80.8832 20.4091 81.8908 21.6136 82.9968 22.9318L105.292 48H93.9741L75.315 27.75C74.2544 26.5682 73.1408 25.2424 71.9741 23.7727C70.8074 22.303 69.8226 20.697 69.0195 18.9545C68.2165 17.197 67.815 15.2879 67.815 13.2273C67.815 10.9091 68.3605 8.81061 69.4514 6.93182C70.5423 5.05303 72.0726 3.56061 74.0423 2.45454C76.0271 1.33333 78.3377 0.772724 80.9741 0.772724C83.5195 0.772724 85.7165 1.29545 87.565 2.34091C89.4135 3.38636 90.8377 4.77273 91.8377 6.5C92.8377 8.22727 93.3377 10.1212 93.3377 12.1818C93.3377 14.3636 92.7998 16.3712 91.7241 18.2045C90.6483 20.0227 89.1256 21.6364 87.1559 23.0455L77.5877 29.8864C76.5726 30.6136 75.7771 31.3939 75.2014 32.2273C74.6256 33.0455 74.3377 33.9394 74.3377 34.9091C74.3377 35.9091 74.5726 36.7803 75.0423 37.5227C75.5271 38.2652 76.2089 38.8485 77.0877 39.2727C77.9665 39.697 78.9968 39.9091 80.1786 39.9091C81.7544 39.9091 83.3302 39.5379 84.9059 38.7955C86.4817 38.0379 87.9211 36.9773 89.2241 35.6136C90.5271 34.2348 91.5726 32.6061 92.3605 30.7273C93.1483 28.8333 93.5423 26.7576 93.5423 24.5H102.497C102.497 27.2879 102.201 29.8788 101.61 32.2727C101.02 34.6515 100.133 36.7879 98.9514 38.6818C97.7847 40.5606 96.3377 42.1212 94.6105 43.3636C94.065 43.6667 93.5347 43.9545 93.0195 44.2273C92.5044 44.5 91.9741 44.7879 91.4286 45.0909C89.6408 46.3788 87.7014 47.303 85.6105 47.8636C83.5347 48.4242 81.4892 48.7045 79.4741 48.7045Z" fill="#FDA432"/>
<path d="M106.153 48V1.45454H117.403V21.1364H118.016L133.403 1.45454H146.653L130.153 22.2273L146.948 48H133.494L121.903 29.7045L117.403 35.3864V48H106.153Z" fill="#FE6079"/>
</svg>
